HIERARCHY
ROOT Hips
{
	OFFSET 0.000000 0.000000 0.000000
	CHANNELS 6 Xposition Yposition Zposition Zrotation Xrotation Yrotation
	JOINT Spine
	{
		OFFSET 1.350495 16.016602 4.118958
		CHANNELS 3 Zrotation Xrotation Yrotation
		JOINT Chest
		{
			OFFSET 2.741913 32.518555 8.362731
			CHANNELS 3 Zrotation Xrotation Yrotation
			JOINT Neck
			{
				OFFSET -1.918793 2.441406 4.089355
				CHANNELS 3 Zrotation Xrotation Yrotation
				JOINT Head
				{
					OFFSET -5.257094 11.312509 15.651098
					CHANNELS 3 Zrotation Xrotation Yrotation
					End Site
					{
						OFFSET 0.0 5.0 0.0
					}
				}
			}
			JOINT LeftShoulder
			{
				OFFSET 12.381201 -2.398264 9.285557
				CHANNELS 3 Zrotation Xrotation Yrotation
				JOINT LeftArm
				{
					OFFSET 0.887842 -2.582204 -2.657139
					CHANNELS 3 Zrotation Xrotation Yrotation
					JOINT LeftForeArm
					{
						OFFSET 7.866356 -23.362816 -9.519958
						CHANNELS 3 Zrotation Xrotation Yrotation
						JOINT LeftHand
						{
							OFFSET -12.321922 -13.551247 13.511658
							CHANNELS 3 Zrotation Xrotation Yrotation
							End Site
							{
								OFFSET 0.0 5.0 0.0
							}
						}
					}
				}
			}
			JOINT RightShoulder
			{
				OFFSET -14.172624 7.069051 -4.326944
				CHANNELS 3 Zrotation Xrotation Yrotation
				JOINT RightArm
				{
					OFFSET 0.903581 -2.088583 -2.301474
					CHANNELS 3 Zrotation Xrotation Yrotation
					JOINT RightForeArm
					{
						OFFSET -3.510840 -7.869065 -24.793068
						CHANNELS 3 Zrotation Xrotation Yrotation
						JOINT RightHand
						{
							OFFSET 0.764258 -20.841873 8.997169
							CHANNELS 3 Zrotation Xrotation Yrotation
							End Site
							{
								OFFSET 0.0 5.0 0.0
							}
						}
					}
				}
			}
		}
	}
	JOINT LeftUpLeg
	{
		OFFSET 6.796265 -0.830078 3.393555
		CHANNELS 3 Zrotation Xrotation Yrotation
		JOINT LeftLeg
		{
			OFFSET -0.982666 -41.064453 -3.950500
			CHANNELS 3 Zrotation Xrotation Yrotation
			JOINT LeftFoot
			{
				OFFSET 6.940891 -30.672318 -22.959991
				CHANNELS 3 Zrotation Xrotation Yrotation
				End Site
				{
					OFFSET 0.0 5.0 0.0
				}
			}
		}
	}
	JOINT RightUpLeg
	{
		OFFSET -6.796265 0.830078 -3.393555
		CHANNELS 3 Zrotation Xrotation Yrotation
		JOINT RightLeg
		{
			OFFSET -8.325195 -40.136719 4.507446
			CHANNELS 3 Zrotation Xrotation Yrotation
			JOINT RightFoot
			{
				OFFSET -0.533278 -37.744335 -9.163093
				CHANNELS 3 Zrotation Xrotation Yrotation
				End Site
				{
					OFFSET 0.0 5.0 0.0
				}
			}
		}
	}
}
MOTION
Frames: 15
Frame Time: 0.033333
529.418335 74.209473 -1449.506104 -2.710272 -0.715093 -2.979825 -0.483494 0.090058 2.646569 2.582559 0.234851 1.787487 0.000001 -0.799077 0.000000 1.144743 -1.254984 -0.417956 8.895619 0.635135 -0.353691 0.000000 0.000000 0.000000 4.084557 -0.000000 -0.000001 -0.000002 -1.510731 -0.000001 38.331527 -29.314319 4.388931 0.000000 -0.000000 -0.000000 -47.573956 -0.000005 -0.000000 0.000004 7.595611 -0.000003 -6.989355 -7.233638 -0.474571 -15.443005 -0.012148 -0.018586 5.070020 -1.326493 1.369952 12.190339 2.824422 0.383043 -3.371160 -0.002688 -0.017019 -5.646045 -4.664868 0.206087
527.212280 73.488213 -1443.296753 -2.406057 -0.840315 -3.771224 -0.762317 0.136198 2.357942 2.214037 0.521387 1.232409 -0.000005 -0.325223 0.000001 -0.016733 -1.144152 0.515103 8.892234 1.219693 0.288343 -0.000000 0.000000 0.000000 3.860749 0.000001 0.000002 0.000001 -0.405657 0.000002 36.226233 -26.570300 3.809836 0.000000 -0.000000 -0.000000 -42.244441 -0.000003 0.000002 0.000010 6.574468 -0.000002 -5.397896 -7.692888 -0.033587 -16.128424 -0.012678 -0.011493 4.835752 -1.930104 1.525457 11.355645 3.584200 0.101707 -2.056267 -0.001636 -0.009729 -5.764788 -4.503389 -0.006816
528.996948 73.830032 -1447.965332 -2.252045 -0.994987 -4.022979 -1.089947 0.360566 2.387606 2.226691 0.782151 1.240586 -0.000001 -0.486092 0.000001 -0.353319 -0.953281 0.150961 8.678786 2.919239 0.197260 -0.000000 0.000000 -0.000000 3.972656 0.000000 -0.000000 0.000003 1.007153 0.000002 35.681256 -24.450700 4.381652 0.000000 0.000000 -0.000000 -39.390848 -0.000003 -0.000001 0.000006 8.364962 -0.000004 -4.511364 -7.065003 0.270420 -17.177541 -0.013483 -0.010257 4.869201 -2.290853 1.667170 11.490304 2.730546 -0.219077 -2.378000 -0.001901 -0.008263 -5.583754 -3.766236 -0.057570
529.777771 73.890854 -1450.051636 -2.223552 -0.825521 -3.678074 -1.005542 0.194380 2.313243 2.097395 0.570095 1.220996 -0.000005 -0.611990 -0.000001 -0.107316 -1.017151 -0.253711 9.090619 4.086504 0.106968 0.000000 0.000000 0.000000 3.804793 0.000001 -0.000002 -0.000002 1.119064 0.000001 35.133844 -23.701787 4.628772 0.000000 0.000000 -0.000000 -34.858656 -0.000001 -0.000002 0.000001 6.952153 -0.000003 -4.861265 -7.083752 0.175534 -16.429173 -0.012905 -0.010960 4.544846 -1.896284 1.539359 11.596528 2.977095 -0.332239 -2.056262 -0.001642 -0.009124 -5.467547 -4.076488 -0.018622
529.187988 73.774147 -1447.998291 -2.106633 -0.918489 -3.397915 -0.924673 0.216133 2.462922 2.015239 0.433726 1.030690 -0.000001 -0.533302 0.000004 -0.067614 -0.992084 0.024629 8.933000 4.634448 -0.420859 0.000000 -0.000000 0.000000 3.804792 -0.000001 -0.000002 -0.000004 -1.189005 -0.000000 34.417439 -23.741701 4.057461 0.000000 0.000000 0.000000 -33.236021 -0.000004 -0.000000 0.000003 4.462244 -0.000000 -5.553094 -6.976698 0.347100 -16.408186 -0.012893 -0.020655 4.557341 -1.933792 1.393263 12.185158 3.167755 -0.546992 -2.937528 -0.002344 -0.018855 -5.167248 -4.599630 0.089641
531.278198 74.299812 -1454.010742 -2.064288 -0.815634 -3.931106 -1.282010 0.268407 2.361635 2.819366 0.490268 0.749637 -0.000001 -0.739629 0.000001 -0.230443 -0.807375 -0.749378 10.904860 4.847684 -0.317499 0.000000 -0.000000 0.000000 2.126202 0.000003 -0.000004 -0.000004 -1.580667 -0.000001 35.866209 -22.529543 5.416872 -0.000000 0.000000 0.000000 -33.711629 -0.000006 -0.000001 0.000005 5.931009 -0.000001 -4.799377 -7.351353 0.323891 -16.967719 -0.013317 -0.006469 4.262436 -1.474658 1.531726 12.661025 2.642032 -0.609379 -3.944673 -0.003138 -0.004586 -5.319199 -3.955143 0.217822
529.982239 74.140213 -1450.492920 -2.098330 -0.946527 -3.794023 -1.069336 0.283199 2.246034 2.706656 0.469397 1.094036 -0.000003 -0.734384 0.000001 0.099170 -0.877640 -0.755366 10.653097 4.687190 -1.017925 -0.000000 0.000000 -0.000000 2.294066 0.000002 -0.000006 -0.000004 -0.937209 0.000000 35.294305 -23.183870 5.561201 -0.000000 0.000000 0.000000 -33.795557 0.000002 -0.000000 0.000002 6.840239 0.000003 -4.706387 -7.085530 0.307324 -17.513260 -0.013734 -0.016973 4.434152 -1.684421 1.522986 11.171350 3.143851 -0.194229 -2.923541 -0.002331 -0.014919 -5.026547 -4.493215 0.047481
529.324829 74.032990 -1448.018433 -2.224672 -0.931709 -3.165171 -1.006015 0.241640 2.205455 2.103716 0.410046 1.523381 -0.000002 -0.849787 0.000004 -0.594086 -0.323379 -0.646502 10.972165 5.503450 -1.601756 -0.000000 -0.000000 -0.000000 2.154183 -0.000001 -0.000001 -0.000003 -0.769349 0.000001 36.379251 -22.922584 7.048955 0.000000 0.000000 0.000000 -35.530089 -0.000008 0.000002 0.000008 8.896511 -0.000003 -4.872584 -6.718530 0.226478 -17.639150 -0.013829 -0.012446 4.553370 -1.354587 1.512747 10.918716 2.845557 0.051602 -2.657762 -0.002120 -0.010349 -5.181983 -4.366127 -0.107722
530.693970 74.286629 -1451.860229 -2.390939 -1.049194 -3.282284 -1.453391 0.284824 2.286670 2.772137 0.324598 1.709114 -0.000005 -1.262439 0.000002 -0.636190 0.018262 -1.592379 12.422126 4.241047 -2.197899 -0.000000 0.000000 -0.000000 1.594653 -0.000002 0.000001 0.000001 -0.881258 -0.000000 38.617242 -22.181788 8.840339 -0.000000 -0.000000 -0.000000 -39.978353 -0.000005 -0.000002 0.000002 9.581933 -0.000004 -4.750339 -6.702022 0.042854 -17.751059 -0.013915 -0.010778 4.642026 -1.306613 1.584436 12.150970 2.664195 -0.045390 -3.650924 -0.002911 -0.008697 -5.416967 -4.149612 0.034723
529.569458 74.008270 -1448.707886 -2.392745 -1.045038 -3.510150 -1.394801 0.263904 2.319063 2.780808 0.337674 1.642752 0.000000 -0.945956 0.000004 -0.407788 -0.432777 -1.019518 12.170217 4.234584 -2.468684 0.000000 -0.000000 0.000000 1.594653 -0.000001 -0.000004 -0.000004 -1.300907 0.000001 40.441094 -22.501554 9.292967 -0.000000 -0.000000 0.000000 -43.195644 0.000002 -0.000002 0.000005 11.211559 -0.000000 -4.709481 -6.685010 -0.029089 -17.527250 -0.013743 -0.008048 4.585722 -1.408222 1.559010 12.283633 2.845571 -0.089611 -3.790809 -0.003019 -0.006031 -5.465009 -3.964164 0.117297
527.833862 73.593987 -1443.923340 -2.350254 -1.007241 -3.047150 -1.273856 0.220609 2.340294 2.237185 0.344947 1.544874 0.000000 -0.935464 0.000003 -0.965547 -0.466450 -1.063900 11.742257 4.773926 -1.889969 -0.000000 0.000000 -0.000000 1.622626 0.000001 -0.000003 -0.000006 -1.370849 -0.000002 40.369898 -23.557243 8.966019 -0.000000 -0.000000 0.000000 -45.979298 0.000002 0.000001 0.000002 10.631051 0.000000 -5.080985 -6.454516 0.071428 -17.520255 -0.013740 -0.009496 4.719427 -1.349525 1.503720 11.677991 3.012593 -0.049095 -3.203301 -0.002551 -0.007448 -5.611099 -4.687247 -0.099469
529.514771 74.023010 -1448.552246 -2.355377 -1.041176 -3.303717 -1.397586 0.241909 2.230082 2.626124 0.392835 1.866509 -0.000000 -1.043875 0.000003 -0.382547 -0.403547 -1.133945 12.640123 4.076346 -2.059745 0.000000 0.000000 -0.000000 1.510723 0.000002 -0.000003 -0.000002 -1.216972 0.000002 43.204691 -23.446494 10.362198 0.000000 0.000000 0.000000 -50.161780 -0.000001 0.000001 0.000009 11.994909 -0.000003 -4.684001 -6.476183 0.025658 -17.730072 -0.013898 0.000618 4.576188 -1.266450 1.611864 12.138462 2.980446 -0.181239 -3.553009 -0.002832 0.002700 -5.772641 -4.486126 0.030180
527.867859 73.530815 -1445.110474 -2.158199 -0.963181 -3.947849 -1.501316 0.351679 2.201466 2.169204 0.645242 1.114317 -0.000001 -0.716899 0.000002 -0.696343 -0.837844 -0.646249 12.923562 4.501887 -0.740188 -0.000000 -0.000000 -0.000000 0.951192 0.000002 -0.000002 -0.000002 -0.461614 0.000002 42.899865 -23.173423 9.848818 -0.000000 -0.000000 0.000000 -51.413722 -0.000005 0.000001 0.000007 12.792237 -0.000004 -3.705368 -7.326673 0.203530 -17.897928 -0.014027 -0.000761 4.225052 -1.247316 1.609154 12.168763 3.439438 -0.242036 -3.608959 -0.002874 0.001356 -5.990577 -4.254624 0.011007
528.237549 73.549507 -1446.173218 -2.275666 -0.853498 -3.574316 -1.374955 0.366074 2.245084 2.236178 0.587554 1.505605 -0.000006 -0.949454 0.000002 -0.626744 -0.712166 -0.953891 12.776670 4.891243 -0.908530 0.000000 0.000000 -0.000000 1.426797 0.000001 -0.000005 -0.000002 0.223812 0.000001 43.536970 -23.312947 10.539607 0.000000 -0.000000 0.000000 -53.840684 -0.000004 0.000003 0.000004 13.211883 -0.000003 -4.410752 -7.048134 0.024251 -17.093613 -0.013414 -0.008981 4.120008 -1.149723 1.457579 12.263250 3.620268 -0.053769 -3.245268 -0.002587 -0.007040 -6.074198 -4.968152 -0.077887
528.135132 73.506020 -1445.986206 -2.376353 -0.740758 -3.794963 -1.448654 0.275875 2.196968 2.354117 0.641044 1.307416 -0.000002 -0.734385 0.000004 -0.683522 -1.100051 -0.640577 12.513226 5.024493 -0.235463 0.000000 0.000000 -0.000000 1.426802 -0.000000 -0.000002 -0.000004 -0.965186 0.000000 44.946333 -23.588772 10.638171 0.000000 0.000000 0.000000 -55.533258 -0.000005 0.000000 0.000008 12.778246 -0.000002 -4.122395 -7.285502 0.028619 -17.331413 -0.013593 -0.007754 4.010178 -1.604642 1.445227 12.827182 3.756123 -0.056898 -3.846759 -0.003062 -0.005783 -6.458662 -4.325280 0.018950
